<svg xmlns="http://www.w3.org/2000/svg" version="1.1" xmlns:xlink="http://www.w3.org/1999/xlink" xmlns:svgjs="http://svgjs.dev/svgjs" width="100%" height="100%" viewBox="0 0 1000 600"><rect width="10" height="60" x="0" y="0" fill="white"/><g><rect width="333.3333333333333" height="333.3333333333333" rx="13.333333333333334" ry="13.333333333333334" y="165.44391532636064" fill="#8014eb" transform="matrix(0.8727730189267022,0,0,0.8727730189267024,0,10.142878098052037)" x="143.22169494628906"/><path d="M289.11913144585714 407.1105698099711Q277.99431311458176 407.1105698099711 271.9638342931272 401.0800909885165Q265.9115847900067 395.04961216706187 265.9115847900067 385.0133279190815L265.9115847900067 385.0133279190815Q265.9115847900067 376.5445327510461 271.09300702649114 370.27457643126655Q276.27442926297556 364.0046201114871 285.0480139743337 364.0046201114871L285.0480139743337 364.0046201114871Q291.77515460909706 364.0046201114871 296.08574957894547 365.9639814614182Q300.3963445487939 367.9233428113493 300.3963445487939 374.51985935611725L300.3963445487939 374.51985935611725Q300.3963445487939 377.32827729101854 299.4602052371601 380.7898156758968L299.4602052371601 380.7898156758968Q296.65178730225887 378.43858205597945 294.6053432256642 377.5677547893434Q292.5588991490695 376.7186982043733 290.0552707574909 376.7186982043733L290.0552707574909 376.7186982043733Q284.8956192026724 376.7186982043733 281.97834785944167 380.1584659075856Q279.08284719787684 383.598233610798 279.08284719787684 388.3007008506326L279.08284719787684 388.3007008506326Q279.08284719787684 393.78691263043964 282.3702201294278 396.53001852034316Q285.6793637426448 399.2731244102467 289.7504812141683 399.2731244102467L289.7504812141683 399.2731244102467Q293.51680914236914 399.2731244102467 296.08574957894547 397.7927180569654Q298.6764606971877 396.3123117036842 300.7229047737824 392.15411150549704Q302.74757816871113 387.99591130731 304.6416274736445 380.0060711359243L304.6416274736445 380.0060711359243L329.2424977561126 268.08299669152746Q318.7490291931483 272.30650893471227 312.9362571883528 281.1018643277363Q307.14525586522313 289.8754490390943 307.14525586522313 302.4153616786533L307.14525586522313 302.4153616786533Q307.14525586522313 308.20636300178296 308.23378994851817 310.49228457670256Q309.34409471347914 312.7564354699562 309.34409471347914 313.06122501327883L309.34409471347914 313.06122501327883Q300.8752995454437 313.06122501327883 296.7170993472566 309.53437458340295Q292.5588991490695 306.007524153527 292.5588991490695 297.86528921048L292.5588991490695 297.86528921048Q292.5588991490695 287.82900496249965 300.78821681878003 278.35875843783276Q309.01753448849064 268.86674123149993 321.8840073530381 262.9886571817067Q334.7287095359196 257.1105731319134 347.59518240046714 257.1105731319134L347.59518240046714 257.1105731319134L353.8651387202466 257.1105731319134L330.35280252107356 368.4022978079991Q326.25991436788416 387.6911217639874 316.854979888215 397.40084578697923Q307.45004540854575 407.1105698099711 289.11913144585714 407.1105698099711L289.11913144585714 407.1105698099711Z " fill="white" transform="matrix(0.8727730189267022,0,0,0.8727730189267024,0,10.142878098052037)"/><path d="M583.0959075689041 407.1105698099711Q571.9710892376286 407.1105698099711 565.940610416174 401.0800909885165Q559.8883609130536 395.04961216706187 559.8883609130536 385.0133279190815L559.8883609130536 385.0133279190815Q559.8883609130536 376.5445327510461 565.069783149538 370.27457643126655Q570.2512053860224 364.0046201114871 579.0247900973804 364.0046201114871L579.0247900973804 364.0046201114871Q585.7519307321439 364.0046201114871 590.0625257019923 365.9639814614182Q594.3731206718408 367.9233428113493 594.3731206718408 374.51985935611725L594.3731206718408 374.51985935611725Q594.3731206718408 377.32827729101854 593.436981360207 380.7898156758968L593.436981360207 380.7898156758968Q590.6285634253057 378.43858205597945 588.5821193487111 377.5677547893434Q586.5356752721164 376.7186982043733 584.0320468805378 376.7186982043733L584.0320468805378 376.7186982043733Q578.8723953257193 376.7186982043733 575.9551239824884 380.1584659075856Q573.0596233209237 383.598233610798 573.0596233209237 388.3007008506326L573.0596233209237 388.3007008506326Q573.0596233209237 393.78691263043964 576.3469962524747 396.53001852034316Q579.6561398656917 399.2731244102467 583.7272573372152 399.2731244102467L583.7272573372152 399.2731244102467Q587.493585265416 399.2731244102467 590.0625257019923 397.7927180569654Q592.6532368202345 396.3123117036842 594.6996808968292 392.15411150549704Q596.724354291758 387.99591130731 598.6184035966915 380.0060711359243L598.6184035966915 380.0060711359243L623.2192738791595 268.08299669152746Q612.7258053161952 272.30650893471227 606.9130333113997 281.1018643277363Q601.12203198827 289.8754490390943 601.12203198827 302.4153616786533L601.12203198827 302.4153616786533Q601.12203198827 308.20636300178296 602.210566071565 310.49228457670256Q603.320870836526 312.7564354699562 603.320870836526 313.06122501327883L603.320870836526 313.06122501327883Q594.8520756684904 313.06122501327883 590.6938754703034 309.53437458340295Q586.5356752721164 306.007524153527 586.5356752721164 297.86528921048L586.5356752721164 297.86528921048Q586.5356752721164 287.82900496249965 594.7649929418269 278.35875843783276Q602.9943106115375 268.86674123149993 615.8607834760849 262.9886571817067Q628.7054856589665 257.1105731319134 641.571958523514 257.1105731319134L641.571958523514 257.1105731319134L647.8419148432935 257.1105731319134L624.3295786441204 368.4022978079991Q620.2366904909311 387.6911217639874 610.8317560112619 397.40084578697923Q601.4268215315926 407.1105698099711 583.0959075689041 407.1105698099711L583.0959075689041 407.1105698099711ZM664.1263847293874 375.30360389608967Q652.5443820831281 375.30360389608967 645.7954707666988 369.33843711963283Q639.0465594502695 363.3950410248419 639.0465594502695 350.52856816029447L639.0465594502695 350.52856816029447Q639.0465594502695 339.8827048256689 643.4442371467815 326.86383718946007Q647.8419148432935 313.84496955325136 657.5516388662853 304.3747230285844Q667.261362889277 294.8827058222515 682.000114377092 294.8827058222515L682.000114377092 294.8827058222515Q702.0726828730527 294.8827058222515 702.0726828730527 319.9625311013695L702.0726828730527 319.9625311013695L702.0726828730527 320.1149258730308Q702.5298671880366 320.289091326358 703.792566724659 320.289091326358L703.792566724659 320.289091326358Q708.9739889611434 320.289091326358 715.7011295959068 317.5459854364545Q722.450040912336 314.80287954655097 727.9362526921431 310.8841568466888L727.9362526921431 310.8841568466888L729.3513470004267 315.1076690898736Q724.8012745322534 319.9625311013695 717.5080961741766 323.33698675958414Q710.2149178160997 326.71144241779876 701.5937278764029 328.1265367260824L701.5937278764029 328.1265367260824Q700.3527990214466 342.38633321724745 695.1713767849621 353.032196551873Q689.9899545484777 363.6998305681645 681.8477196054307 369.49083189129414Q673.7054846623838 375.30360389608967 664.1263847293874 375.30360389608967L664.1263847293874 375.30360389608967ZM670.3963410491668 361.1962021765859Q674.1626689773677 361.1962021765859 677.9289969055686 356.88560720673746Q681.6953248337694 352.5750122368891 684.5037427686707 345.129439107151Q687.3339313852377 337.68386597741284 688.5966309218601 328.5837210410662L688.5966309218601 328.5837210410662Q684.3513479970094 327.6475817294325 684.3513479970094 322.00897517796415L684.3513479970094 322.00897517796415Q684.3513479970094 315.5866240865234 689.2062100085053 313.54018000992875L689.2062100085053 313.54018000992875Q688.9014204651827 308.35875777344427 687.6387209285604 306.39939642351317Q686.397792073604 304.44003507358207 683.2628139137144 304.44003507358207L683.2628139137144 304.44003507358207Q678.0813916772298 304.44003507358207 673.226529665734 311.9726909299838Q668.3716676542381 319.5053467863856 665.3890842660096 329.99881534934985Q662.4065008777812 340.4922839123141 662.4065008777812 348.5038947653657L662.4065008777812 348.5038947653657Q662.4065008777812 356.0147799401015 664.1263847293874 358.6054910583437Q665.8680392626594 361.1962021765859 670.3963410491668 361.1962021765859L670.3963410491668 361.1962021765859ZM730.9188360803715 375.6083934394123Q720.2512020640801 375.6083934394123 714.6125955126117 370.3616591579302Q708.9739889611434 365.11492487644813 708.9739889611434 355.5575956251176L708.9739889611434 355.5575956251176Q708.9739889611434 350.85512838528297 710.0625230444384 346.60984546043227L710.0625230444384 346.60984546043227L726.8259479271821 268.08299669152746L750.0334945830326 264.9480185316378L742.5008387266308 300.21652283039725Q746.8985164231428 297.5604996671574 749.7287050397099 296.6896724005213Q752.5371229746112 295.81884513388536 755.3673115911782 295.81884513388536L755.3673115911782 295.81884513388536Q773.8506203255282 295.81884513388536 773.8506203255282 322.64032494627526L773.8506203255282 322.64032494627526Q773.8506203255282 333.43858305256214 769.7141908090069 345.7607888754621Q765.55599061082 358.06122401669614 755.9115786328258 366.83480872805427Q746.2671666548316 375.6083934394123 730.9188360803715 375.6083934394123L730.9188360803715 375.6083934394123ZM739.6924207917297 360.4124576366135Q744.5472828032256 360.4124576366135 748.7707950464103 354.3819788151589Q753.016077971261 348.3297293120384 755.5197063628395 339.31666710235544Q758.0233347544182 330.30360489267247 758.0233347544182 322.00897517796415L758.0233347544182 322.00897517796415Q758.0233347544182 315.7390188581847 755.8244959061622 311.34134116167274Q753.6474277395721 306.9654341468266 749.7287050397099 306.9654341468266L749.7287050397099 306.9654341468266Q747.3774714197926 306.9654341468266 744.4602000765619 307.6620959601354Q741.5646994149971 308.35875777344427 740.476165331702 309.7738520817278L740.476165331702 309.7738520817278L731.8549753920053 349.59242884866075Q731.3760203953553 351.4647074719282 731.3760203953553 353.2063620052002L731.3760203953553 353.2063620052002Q731.3760203953553 360.4124576366135 739.6924207917297 360.4124576366135L739.6924207917297 360.4124576366135ZM797.5371219780284 375.6083934394123Q790.0044661216267 375.6083934394123 784.8230438851423 372.71289277784746Q779.6633923303237 369.81739211628275 777.1597639387452 365.1802369214458Q774.6343648655006 360.5648524082748 774.6343648655006 355.5575956251176L774.6343648655006 355.5575956251176Q774.6343648655006 350.37617338863316 777.0726812120815 346.5445334154346Q779.5109975586624 342.69112276057007 782.9507652618748 340.9712389089639L782.9507652618748 340.9712389089639Q789.068326809993 329.99881534934985 793.6183992781663 318.7869142914108Q798.1467010646736 307.57501323347185 802.239589217863 294.5779162789289L802.239589217863 294.5779162789289L825.4253651920475 291.44293811903924Q826.20910973202 311.49373593333405 828.1031590369533 334.8536773608458L828.1031590369533 334.8536773608458Q828.8869035769259 344.2586118405149 828.8869035769259 348.5038947653657L828.8869035769259 348.5038947653657Q828.8869035769259 352.0960572402393 828.2555538086148 354.44729086015656L828.2555538086148 354.44729086015656Q835.6140442116892 350.22377861697186 839.5327669115514 346.60984546043227L839.5327669115514 346.60984546043227L846.1292834563193 346.60984546043227Q836.092999208339 358.21361878835745 822.1379922604966 366.20345895974316L822.1379922604966 366.20345895974316Q817.5879197923232 371.0583209712391 810.9260912025576 373.3442425461587Q804.2642626127919 375.6083934394123 797.5371219780284 375.6083934394123L797.5371219780284 375.6083934394123ZM792.5080945132053 363.2208755715147Q798.3208665180009 363.2208755715147 802.239589217863 359.7811078683023Q806.1583119177252 356.34134016509 806.1583119177252 348.6562895370269L806.1583119177252 348.6562895370269Q806.1583119177252 343.9538222971923 805.2004019244256 335.4850271291569L805.2004019244256 335.4850271291569Q803.6329128444808 317.61129748145214 803.1757285294967 311.49373593333405L803.1757285294967 311.49373593333405Q799.4094006012959 323.8812538012317 790.4834211182765 341.12363368062523L790.4834211182765 341.12363368062523Q794.0755835931502 343.01768298555857 794.0755835931502 346.60984546043227L794.0755835931502 346.60984546043227Q794.0755835931502 349.59242884866075 792.1162222432191 351.943662468578Q790.156860893288 354.29489608849525 787.1742775050596 354.29489608849525L787.1742775050596 354.29489608849525Q783.8869045735086 354.29489608849525 782.9507652618748 352.2484520119006L782.9507652618748 352.2484520119006Q782.9507652618748 357.90882924503484 785.2149161551284 360.5648524082748Q787.5008377300481 363.2208755715147 792.5080945132053 363.2208755715147L792.5080945132053 363.2208755715147ZM855.0552629393388 375.6083934394123Q847.522607082937 375.6083934394123 842.9072225697661 370.9059261995778Q838.291838056595 366.20345895974316 838.291838056595 356.7985244800739L838.291838056595 356.7985244800739Q838.291838056595 352.8798017802117 839.5327669115514 346.60984546043227L839.5327669115514 346.60984546043227L848.9377013912207 302.5677564503146L843.7780498364021 302.5677564503146L845.0189786913585 296.29780013053517L850.2004009278429 296.29780013053517L854.9028681676774 274.65774255462964L878.088644141862 271.52276439473985L872.7765978153822 296.29780013053517L882.1815322950514 296.29780013053517L880.9188327584292 302.5677564503146L871.5138982787599 302.5677564503146L861.4776140307796 349.59242884866075Q860.8462642624685 351.943662468578 860.8462642624685 354.59968563181786L860.8462642624685 354.59968563181786Q860.8462642624685 357.73466379170765 862.3484412974157 359.0844460549935Q863.828847650697 360.4124576366135 867.2903860355751 360.4124576366135L867.2903860355751 360.4124576366135Q871.8186878220826 360.4124576366135 875.7374105219448 356.55904698174896Q879.6561332218068 352.7274070085504 881.3977877550789 346.60984546043227L881.3977877550789 346.60984546043227L887.9725336181809 346.60984546043227Q882.1815322950514 363.5474357965032 873.0813873587048 369.5779146179578Q863.9812424223582 375.6083934394123 855.0552629393388 375.6083934394123L855.0552629393388 375.6083934394123ZM903.799819189291 375.6083934394123Q892.1960458613659 375.6083934394123 885.7736947699251 369.5779146179578Q879.3513436784842 363.5474357965032 879.3513436784842 350.6809629319558L879.3513436784842 350.6809629319558Q879.3513436784842 339.8827048256689 883.574855921669 326.86383718946007Q887.8201388465196 313.84496955325136 897.3774680978503 304.3747230285844Q906.9347973491807 294.8827058222515 921.6735488369957 294.8827058222515L921.6735488369957 294.8827058222515Q938.9159287163892 294.8827058222515 938.9159287163892 309.9262468533891L938.9159287163892 309.9262468533891Q938.9159287163892 318.72160224641317 933.9086719332321 326.08009264948765Q928.8796444684089 333.43858305256214 920.5850147537006 337.9233434757378Q912.2686143573266 342.38633321724745 902.8636798776573 343.01768298555857L902.8636798776573 343.01768298555857Q902.5588903343347 347.7201502253932 902.5588903343347 349.28763930533813L902.5588903343347 349.28763930533813Q902.5588903343347 356.95091925173523 905.2149134975747 359.69402514163875Q907.8709366608144 362.43713103154226 913.8361034372714 362.43713103154226L913.8361034372714 362.43713103154226Q922.3048986053069 362.43713103154226 928.3353774267614 358.51840833168006Q934.3658562482159 354.59968563181786 941.5719518796292 346.60984546043227L941.5719518796292 346.60984546043227L946.9057688877749 346.60984546043227Q929.5109942367201 375.6083934394123 903.799819189291 375.6083934394123L903.799819189291 375.6083934394123ZM904.1263794142795 335.4850271291569Q909.9173807374092 335.1802375858343 915.1641150188913 331.4139096576334Q920.4108493003735 327.6475817294325 923.6329101869268 321.85658040630284Q926.8549710734801 316.0438084015073 926.8549710734801 309.6214573100665L926.8549710734801 309.6214573100665Q926.8549710734801 303.19910621862573 922.9362483736179 303.19910621862573L922.9362483736179 303.19910621862573Q917.2758711404837 303.19910621862573 911.8767420873403 313.06122501327883Q906.4776130341969 322.94511448959787 904.1263794142795 335.4850271291569L904.1263794142795 335.4850271291569ZM935.6285557848382 374.67225412777856L952.2395858959206 296.29780013053517L974.8157827834599 296.29780013053517L972.7693387068653 306.007524153527Q978.103155715011 301.3050569136924 982.4137506848595 298.8014285221137Q986.7243456547077 296.29780013053517 991.731602437865 296.29780013053517L991.731602437865 296.29780013053517Q996.760629902688 296.29780013053517 999.656130564253 299.73756783374745Q1002.5516312258178 303.19910621862573 1002.5516312258178 308.05396823012165L1002.5516312258178 308.05396823012165Q1002.5516312258178 312.6040406982949 999.5690478375893 316.0438084015073Q996.6082351310268 319.5053467863856 991.274418122881 319.5053467863856L991.274418122881 319.5053467863856Q987.8128797380028 319.5053467863856 986.6372629280442 317.8507749797771Q985.4616461180855 316.1962031731686 984.8520670314402 313.06122501327883L984.8520670314402 313.06122501327883Q984.3731120347904 311.03655161835013 983.8941570381406 310.1004123067163Q983.4369727231567 309.1425023134167 982.1742731865345 309.1425023134167L982.1742731865345 309.1425023134167Q978.8869002549835 309.1425023134167 976.6227493617297 310.49228457670256Q974.3368277868102 311.8202961583225 970.7446653119365 315.1076690898736L970.7446653119365 315.1076690898736L958.2047526723775 374.67225412777856L935.6285557848382 374.67225412777856Z " fill="#8014eb" transform="matrix(0.8727730189267022,0,0,0.8727730189267024,0,10.142878098052037)"/></g></svg>